<?xml version="1.0" encoding="UTF-8" standalone="no"?>
<svg
   width="2269.365"
   zoomAndPan="magnify"
   viewBox="0 0 1701.9093 288.29549"
   height="384.39401"
   preserveAspectRatio="xMidYMid"
   version="1.0"
   id="svg88"
   sodipodi:docname="CtrlAltQuest Logo.svg"
   inkscape:version="1.3.2 (091e20e, 2023-11-25, custom)"
   xmlns:inkscape="http://www.inkscape.org/namespaces/inkscape"
   xmlns:sodipodi="http://sodipodi.sourceforge.net/DTD/sodipodi-0.dtd"
   xmlns="http://www.w3.org/2000/svg"
   xmlns:svg="http://www.w3.org/2000/svg">
  <sodipodi:namedview
     id="namedview88"
     pagecolor="#ffffff"
     bordercolor="#666666"
     borderopacity="1.0"
     inkscape:showpageshadow="2"
     inkscape:pageopacity="0.0"
     inkscape:pagecheckerboard="0"
     inkscape:deskcolor="#d1d1d1"
     inkscape:zoom="0.50378151"
     inkscape:cx="1518.5154"
     inkscape:cy="554.804"
     inkscape:window-width="2560"
     inkscape:window-height="1377"
     inkscape:window-x="-8"
     inkscape:window-y="-8"
     inkscape:window-maximized="1"
     inkscape:current-layer="svg88" />
  <defs
     id="defs23">
    <g
       id="g1" />
    <clipPath
       id="08b64a5daa">
      <path
         d="M 333.375,355.62891 H 711.34766 V 733.60156 H 333.375 Z m 0,0"
         clip-rule="nonzero"
         id="path5" />
    </clipPath>
    <clipPath
       id="9ca0c2c402">
      <path
         d="m 417.36719,355.62891 h 209.98828 c 22.27734,0 43.64062,8.84765 59.39062,24.60156 15.75391,15.75 24.60157,37.11719 24.60157,59.39062 v 209.98828 c 0,22.27735 -8.84766,43.64063 -24.60157,59.39063 -15.75,15.75391 -37.11328,24.60156 -59.39062,24.60156 H 417.36719 c -22.27344,0 -43.64063,-8.84765 -59.39063,-24.60156 C 342.22266,693.25 333.375,671.88672 333.375,649.60937 V 439.62109 c 0,-22.27343 8.84766,-43.64062 24.60156,-59.39062 15.75,-15.75391 37.11719,-24.60156 59.39063,-24.60156 z m 0,0"
         clip-rule="nonzero"
         id="path6" />
    </clipPath>
    <clipPath
       id="2df2b70828">
      <path
         d="M 994.68359,301.19141 H 1530.1133 V 836.61719 H 994.68359 Z m 0,0"
         clip-rule="nonzero"
         id="path16" />
    </clipPath>
    <clipPath
       id="2f8884bcb2">
      <path
         d="m 1078.6797,301.19141 h 367.4375 c 46.3906,0 83.9961,37.60546 83.9961,83.99218 V 752.625 c 0,46.38672 -37.6055,83.99219 -83.9961,83.99219 h -367.4375 c -46.3906,0 -83.99611,-37.60547 -83.99611,-83.99219 V 385.18359 c 0,-46.38672 37.60551,-83.99218 83.99611,-83.99218 z m 0,0"
         clip-rule="nonzero"
         id="path17" />
    </clipPath>
    <clipPath
       id="7cb7a7636e">
      <path
         d="M 994.68359,301.19141 H 1530.1016 V 836.60937 H 994.68359 Z m 0,0"
         clip-rule="nonzero"
         id="path18" />
    </clipPath>
    <clipPath
       id="162e2c8b3a">
      <path
         d="m 1078.6758,301.19141 h 367.4336 c 46.3867,0 83.9922,37.60546 83.9922,83.99218 v 367.42969 c 0,46.39063 -37.6055,83.99609 -83.9922,83.99609 h -367.4336 c -46.3867,0 -83.99221,-37.60546 -83.99221,-83.99609 V 385.18359 c 0,-46.38672 37.60551,-83.99218 83.99221,-83.99218 z m 0,0"
         clip-rule="nonzero"
         id="path19" />
    </clipPath>
    <clipPath
       id="d5194ad658">
      <path
         d="m 1073.4102,355.62891 h 377.9765 v 377.97265 h -377.9765 z m 0,0"
         clip-rule="nonzero"
         id="path20" />
    </clipPath>
    <clipPath
       id="c02587422a">
      <path
         d="m 1157.4063,355.62891 h 209.9843 c 22.2774,0 43.6407,8.84765 59.3946,24.60156 15.75,15.75 24.6015,37.11719 24.6015,59.39062 v 209.98828 c 0,22.27735 -8.8515,43.64063 -24.6015,59.39063 -15.7539,15.75391 -37.1172,24.60156 -59.3946,24.60156 h -209.9843 c -22.2774,0 -43.6407,-8.84765 -59.3946,-24.60156 -15.75,-15.75 -24.6015,-37.11328 -24.6015,-59.39063 V 439.62109 c 0,-22.27343 8.8515,-43.64062 24.6015,-59.39062 15.7539,-15.75391 37.1172,-24.60156 59.3946,-24.60156 z m 0,0"
         clip-rule="nonzero"
         id="path21" />
    </clipPath>
  </defs>
  <g
     id="g150"
     inkscape:label="Quest Key"
     style="display:inline"
     transform="matrix(0.9999989,0,0,0.9999989,-34.945729,-622.75836)">
    <path
       id="path41"
       clip-path="none"
       d="m 180.34878,970.22985 c -46.38667,0 -83.992668,37.60455 -83.992668,83.99115 v 346.1719 c 0,46.3866 37.605998,83.9926 83.992668,83.9926 H 1626.5289 c 46.3905,0 83.9956,-37.606 83.9956,-83.9926 V 1054.221 c 0,-46.3866 -37.6051,-83.99115 -83.9956,-83.99115 z"
       style="display:inline;fill:#a190bf;fill-opacity:1"
       inkscape:label="background"
       transform="matrix(0.56071637,0,0,0.56071637,777.79043,78.735432)" />
    <path
       id="path43"
       style="color:#000000;display:inline;fill:#2d2936;-inkscape-stroke:none"
       d="m 180.3605,970.22985 c -46.38668,0 -83.992668,37.60065 -83.992668,83.99115 v 346.1645 c 0,46.3867 37.605988,83.9927 83.992668,83.9927 h 1446.1479 c 46.3905,0 83.997,-37.606 83.997,-83.9927 V 1054.221 c 0,-46.3905 -37.6065,-83.99115 -83.997,-83.99115 z m 0,7.5 h 1446.1508 c 42.3381,0 76.4956,34.15345 76.4956,76.49115 v 346.1645 c 0,42.3334 -34.1579,76.4927 -76.4956,76.4927 H 180.3605 c -42.33345,0 -76.49267,-34.1593 -76.49267,-76.4927 V 1054.221 c 0,-42.3377 34.15879,-76.49115 76.49267,-76.49115 z"
       clip-path="none"
       inkscape:label="background border"
       transform="matrix(0.56071637,0,0,0.56071637,777.79043,78.735432)" />
    <path
       id="path45"
       d="m 227.96645,1017.3157 c -22.27731,0 -43.64113,8.8506 -59.39501,24.6006 -15.74999,15.7539 -24.60205,37.1177 -24.60205,59.395 v 204.668 c 0,22.2773 8.85206,43.6411 24.60205,59.395 15.75388,15.75 37.1177,24.6006 59.39501,24.6006 H 1578.9156 c 22.2773,0 43.6406,-8.8506 59.3906,-24.6006 13.4008,-13.4008 21.7417,-30.873 23.9531,-49.5014 v -224.4537 c -2.2114,-18.6285 -10.5523,-36.102 -23.9531,-49.5029 -15.75,-15.75 -37.1133,-24.6006 -59.3906,-24.6006 z"
       style="display:inline;fill:#cdc4dd;fill-opacity:1"
       inkscape:label="face"
       transform="matrix(0.56071637,0,0,0.56071637,777.79043,78.735432)" />
    <path
       id="path47"
       clip-path="none"
       style="color:#000000;display:inline;fill:#2d2936;stroke-width:0.74995;-inkscape-stroke:none"
       d="m 227.96645,1017.3157 c -22.27731,0 -43.64064,8.8506 -59.39062,24.6006 -15.75388,15.7539 -24.60205,37.1177 -24.60205,59.395 v 204.6636 c 0,22.2774 8.84817,43.6411 24.60205,59.395 15.74998,15.75 37.11331,24.6021 59.39062,24.6021 H 1578.9039 c 22.2772,0 43.6396,-8.8521 59.3935,-24.6021 15.75,-15.7539 24.6021,-37.1176 24.6021,-59.395 v -204.6636 c 0,-22.2773 -8.8521,-43.6411 -24.6021,-59.395 -15.7539,-15.75 -37.1163,-24.6006 -59.3935,-24.6006 z m -0.001,7.4986 H 1578.9039 c 20.2908,0 39.7423,8.0596 54.0923,22.4062 14.3456,14.3499 22.4047,33.8022 22.4047,54.0923 v 204.6621 c 0,20.2908 -8.0597,39.7437 -22.4062,54.0938 -14.3499,14.3456 -33.8007,22.4033 -54.0908,22.4033 H 227.96499 c -20.29078,0 -39.74066,-8.059 -54.08643,-22.4048 -14.34958,-14.3496 -22.40478,-33.8007 -22.40478,-54.0923 v -204.6621 c 0,-20.2917 8.0552,-39.7427 22.40478,-54.0923 14.34577,-14.3458 33.79565,-22.4062 54.08643,-22.4062 z"
       inkscape:label="face border"
       transform="matrix(0.56071637,0,0,0.56071637,777.79043,78.735432)" />
    <path
       stroke-linecap="butt"
       fill="none"
       stroke-linejoin="miter"
       d="m 1319.3175,1288.1317 c 0.2617,-3.2539 1.4883,-5.8164 3.6797,-7.6797 2.1914,-1.8633 4.914,-2.6641 8.1718,-2.4023 3.2539,0.2617 5.8203,1.4296 7.6914,3.4961 1.879,2.0078 2.6875,4.6679 2.418,7.9843 -0.586,7.25 -4.3437,13.5938 -11.2734,19.0352 -6.8633,5.3789 -15.086,7.6875 -24.6719,6.914 -9.582,-0.7732 -17.2383,-4.7304 -22.9727,-11.871 -5.7265,-7.1993 -8.1914,-15.7149 -7.3984,-25.543 l 10.5273,-130.5742 -16.3124,-1.3167 c -2.7617,-0.2226 -5.0157,-1.4257 -6.7578,-3.6054 -1.6797,-2.1758 -2.418,-4.5235 -2.2149,-7.043 0.2031,-2.5195 1.3047,-4.6875 3.3086,-6.5039 2.0664,-1.8711 4.4844,-2.6992 7.2461,-2.4766 l 9.125,0.738 c 3.9922,0.3203 6.5235,-0.031 7.5977,-1.0586 1.1367,-1.0821 1.8476,-3.375 2.1289,-6.8789 l 1.6445,-20.3633 c 0.793,-9.8281 6.2266,-14.336 16.3008,-13.5235 3.0078,0.2422 4.3945,1.8672 4.1523,4.879 l -3.1679,39.2539 16.5898,1.336 c 6.8164,0.551 9.9531,4.2343 9.4023,11.0546 -0.1996,2.457 -1.2656,4.5665 -3.1992,6.3282 -1.875,1.7656 -4.4687,2.5156 -7.789,2.2461 l -16.586,-1.3357 -10.4961,130.2031 c -0.957,11.8594 2.4649,18.1016 10.2695,18.7305 7.8008,0.6289 11.9961,-2.711 12.586,-10.0235 z m 0,0"
       stroke="#2d2936"
       stroke-width="9.46661"
       stroke-opacity="1"
       stroke-miterlimit="4"
       id="path53"
       style="display:inline"
       transform="matrix(0.56071637,0,0,0.56071637,777.79043,78.735432)"
       inkscape:label="back T" />
    <path
       d="m 1319.3278,1288.1187 c 0.2578,-3.2695 1.4726,-5.832 3.6406,-7.6875 2.1758,-1.8516 4.8984,-2.6484 8.1719,-2.3906 3.2695,0.2617 5.8359,1.4179 7.7031,3.4687 1.8633,2.0547 2.664,4.7149 2.4062,7.9844 -0.5937,7.3047 -4.3398,13.6484 -11.2343,19.0313 -6.8868,5.3945 -15.1094,7.707 -24.6719,6.9375 -9.5625,-0.7735 -17.2188,-4.7422 -22.9688,-11.9063 -5.75,-7.1758 -8.2304,-15.6719 -7.4375,-25.4844 l 10.5157,-130.5937 -16.25,-1.3125 c -2.7618,-0.2188 -5.0079,-1.4102 -6.7344,-3.5781 -1.7188,-2.1641 -2.4805,-4.5079 -2.2813,-7.0313 0.2071,-2.5195 1.336,-4.707 3.3907,-6.5625 2.0507,-1.8516 4.457,-2.6719 7.2187,-2.4531 l 9.0625,0.7344 c 4.0313,0.3242 6.5938,-0.039 7.6875,-1.0938 1.0938,-1.0508 1.7852,-3.3359 2.0781,-6.8594 l 1.6407,-20.375 c 0.789,-9.8125 6.2187,-14.3164 16.2812,-13.5156 3.0195,0.25 4.4063,1.8867 4.1563,4.9063 l -3.1563,39.25 16.6094,1.3281 c 6.8008,0.5547 9.9258,4.2304 9.375,11.0312 -0.1992,2.5117 -1.2617,4.6407 -3.1875,6.3907 -1.918,1.7421 -4.5117,2.4765 -7.7813,2.2031 l -16.6093,-1.3281 -10.4844,130.2187 c -0.961,11.8359 2.4609,18.0703 10.2656,18.7031 7.8008,0.625 12,-2.7109 12.5938,-10.0156 z m 0,0"
       id="path65"
       style="fill:#6a0dad;fill-opacity:1"
       inkscape:label="front T"
       transform="matrix(0.56071637,0,0,0.56071637,777.79043,78.735432)" />
    <path
       stroke-linecap="butt"
       fill="none"
       stroke-linejoin="miter"
       d="m 1141.29,1148.7841 c -0.4726,9.0508 8.0196,20.7266 25.4805,35.0313 l 11.9688,10.0664 c 6.7539,5.414 12.125,10.0781 16.1172,13.9883 3.9961,3.8476 8.0898,9.9882 12.2773,18.414 4.25,8.4297 6.1367,17.1993 5.6602,26.3086 -0.7342,14.0938 -6.0196,26.6563 -15.8555,37.6836 -9.7695,10.9688 -22.9922,16.0157 -39.6719,15.1446 -16.6172,-0.8676 -29.9492,-5.543 -40,-14.0313 -10.0469,-8.4844 -14.7461,-18.9141 -14.1016,-31.2851 0.3946,-7.5704 2.7657,-13.9571 7.1133,-19.1641 4.3438,-5.2031 8.7617,-7.6875 13.2539,-7.4531 4.5547,0.2382 7.9571,1.8671 10.2071,4.8867 2.25,3.0156 3.2539,6.8047 3.0156,11.3594 -0.4766,9.1054 -3.875,15.75 -10.2031,19.9218 0.289,5.0782 3.2929,9.5547 9.0156,13.4336 5.7265,3.8164 13.4531,5.9805 23.1758,6.4883 9.7265,0.5078 17.7851,-2.5898 24.1836,-9.2891 6.4023,-6.7656 9.8086,-14.1171 10.2265,-22.0546 0.4142,-7.9414 -1.1367,-14.9024 -4.6484,-20.8868 -3.4492,-6.0429 -7.0039,-10.6718 -10.6602,-13.8867 -3.5976,-3.2148 -9.3906,-8.082 -17.3828,-14.6094 l -6.4844,-5.2461 c -11.6757,-9.1875 -20.375,-17.5429 -26.0898,-25.0625 -5.6563,-7.5156 -8.2149,-16.4765 -7.668,-26.875 0.5469,-10.4648 4.7891,-19.039 12.7305,-25.7187 7.9375,-6.6836 17.4492,-9.7344 28.5273,-9.1563 11.1407,0.5821 20.9454,4.2735 29.4141,11.0703 8.4727,6.7383 12.4649,14.7852 11.9766,24.1407 -0.2226,4.2461 -1.4844,7.7617 -3.7891,10.539 -2.2461,2.7852 -5.3984,4.0703 -9.4609,3.8594 -4,-0.2113 -7.8477,-2.7266 -11.5469,-7.5469 -3.6328,-4.8789 -5.3438,-9.3828 -5.125,-13.5078 0.2187,-4.1836 1.0234,-7.7812 2.4141,-10.7969 -2.1875,-1.8398 -6.6368,-2.9375 -13.3438,-3.289 -6.6484,-0.3477 -11.7031,1.3633 -15.1719,5.1328 -3.4648,3.707 -5.3164,7.8359 -5.5547,12.3906 z m 0,0"
       stroke="#2d2936"
       stroke-width="9.46662"
       stroke-opacity="1"
       stroke-miterlimit="4"
       id="path52"
       style="display:inline"
       transform="matrix(0.56071637,0,0,0.56071637,777.79043,78.735432)"
       inkscape:label="back S" />
    <path
       d="m 1141.2674,1148.7278 c -0.4805,9.0742 8,20.7657 25.4375,35.0782 l 12,10.125 c 6.8008,5.4062 12.1875,10.0468 16.1563,13.9218 3.9687,3.8672 8.0664,10.0157 12.2968,18.4532 4.2383,8.4375 6.1172,17.1992 5.6407,26.2812 -0.7422,14.1172 -6.0118,26.668 -15.8125,37.6563 -9.8047,10.9882 -23.0235,16.0468 -39.6563,15.1718 -16.6367,-0.8672 -29.9766,-5.539 -40.0156,-14.0156 -10.043,-8.4883 -14.7422,-18.9141 -14.0938,-31.2812 0.3946,-7.5625 2.7422,-13.9454 7.0469,-19.1563 4.3125,-5.207 8.7383,-7.6914 13.2813,-7.4531 4.539,0.2422 7.9296,1.8711 10.1718,4.8906 2.25,3.0234 3.2539,6.8047 3.0157,11.3438 -0.4688,9.0742 -3.8555,15.7265 -10.1563,19.9531 0.25,5.0625 3.2422,9.5156 8.9844,13.3594 5.7383,3.8359 13.457,6.0078 23.1562,6.5156 9.7071,0.5 17.7696,-2.6172 24.1875,-9.3594 6.4258,-6.7383 9.8477,-14.0781 10.2657,-22.0156 0.414,-7.9375 -1.1172,-14.8985 -4.5938,-20.8906 -3.4805,-6 -7.0312,-10.6133 -10.6562,-13.8438 -3.625,-3.2266 -9.4375,-8.0859 -17.4375,-14.5781 l -6.5625,-5.2656 c -11.6485,-9.1954 -20.3086,-17.5469 -25.9844,-25.0469 -5.668,-7.5 -8.2305,-16.4844 -7.6875,-26.9531 0.5508,-10.4688 4.789,-19.0313 12.7187,-25.6875 7.9375,-6.6641 17.4453,-9.7071 28.5313,-9.125 11.0937,0.5742 20.8828,4.246 29.375,11.0156 8.5,6.7734 12.5039,14.8203 12.0156,24.1406 -0.2305,4.293 -1.4922,7.8281 -3.7812,10.6094 -2.293,2.7812 -5.461,4.0703 -9.5,3.8594 -4.0313,-0.2071 -7.8829,-2.75 -11.5469,-7.625 -3.6563,-4.875 -5.375,-9.3907 -5.1563,-13.5469 0.2188,-4.1563 1.0352,-7.7071 2.4532,-10.6563 -2.1797,-1.8945 -6.6055,-3.0156 -13.2813,-3.3593 -6.6797,-0.3516 -11.7578,1.3398 -15.2344,5.0781 -3.4804,3.7422 -5.3398,7.875 -5.5781,12.4062 z m 0,0"
       id="path62"
       style="fill:#6a0dad;fill-opacity:1"
       inkscape:label="front S"
       transform="matrix(0.56071637,0,0,0.56071637,777.79043,78.735432)" />
    <path
       stroke-linecap="butt"
       fill="none"
       stroke-linejoin="miter"
       d="m 1049.6259,1171.1238 c -0.789,-10.125 -5.1328,-19.918 -13.0234,-29.375 -7.8945,-9.5234 -17.8476,-14.3984 -29.8633,-14.6328 -11.95308,-0.2305 -21.92958,4.0156 -29.92568,12.7383 -7.9961,8.6601 -13.6094,18.5078 -16.8438,29.5429 z m -42.2382,128.7304 c -22.98438,-0.445 -41.23438,-9.7656 -54.75388,-27.9649 -13.5195,-18.1953 -20.0117,-41.1601 -19.4765,-68.8905 0.5351,-27.7891 7.5937,-50.2461 21.1757,-67.3672 13.586,-17.1836 31.2227,-25.5664 52.91018,-25.1484 11.0937,0.2152 20.996,2.8711 29.7148,7.9687 8.7773,5.1016 15.5,11.3321 20.1679,18.6953 9.8164,15.1094 14.5977,29.3477 14.3399,42.7188 -0.1368,7.0859 -3.5,10.5664 -10.0938,10.4414 l -106.01938,-2.043 c -0.5547,3.2539 -0.8907,7.9023 -1.0079,13.9414 -0.4453,23.2304 4.4219,42.4023 14.6133,57.5156 10.1875,15.1172 23.1055,22.8242 38.75778,23.125 6.8398,0.1325 13.0664,-1.5664 18.6836,-5.0977 5.6172,-3.5898 9.5976,-7.0547 11.9414,-10.4023 2.3476,-3.4063 5.0234,-7.9766 8.0312,-13.7149 3.0078,-5.7343 7.0391,-8.5546 12.0938,-8.457 7.5781,0.1445 11.3007,3.6055 11.1718,10.3867 -0.1716,8.8711 -5.9961,18.5625 -17.4804,29.0664 -11.4219,10.5039 -26.3438,15.582 -44.7695,15.2266 z m 0,0"
       stroke="#2d2936"
       stroke-width="9.46661"
       stroke-opacity="1"
       stroke-miterlimit="4"
       id="path51"
       style="display:inline"
       inkscape:label="back E"
       transform="matrix(0.56071637,0,0,0.56071637,777.79043,78.735432)" />
    <path
       d="m 1049.6554,1171.1399 c -0.8125,-10.1133 -5.1679,-19.9219 -13.0625,-29.4219 -7.8984,-9.5 -17.8437,-14.3633 -29.8437,-14.5937 -11.99222,-0.2266 -21.9805,4 -29.96878,12.6875 -7.99219,8.6875 -13.60547,18.5586 -16.84375,29.6093 z m -42.25,128.7031 c -22.96873,-0.4375 -41.21873,-9.75 -54.74998,-27.9375 -13.53125,-18.1875 -20.03125,-41.1601 -19.5,-68.9219 0.53125,-27.7695 7.58594,-50.2343 21.17188,-67.3906 13.58203,-17.164 31.23437,-25.539 52.9531,-25.125 11.1016,0.2188 21.0196,2.875 29.75,7.9688 8.7266,5.0937 15.4258,11.3515 20.0938,18.7656 9.8008,15.0859 14.5781,29.3086 14.3281,42.6719 -0.1367,7.0742 -3.4844,10.5468 -10.0469,10.4218 l -105.99998,-2.0468 c -0.5625,3.2734 -0.90625,7.9336 -1.03125,13.9843 -0.44922,23.2305 4.41406,42.3907 14.59375,57.4844 10.1875,15.0938 23.10938,22.793 38.76558,23.0938 6.8125,0.1367 13.0313,-1.5703 18.6563,-5.125 5.6328,-3.5625 9.6172,-7.0196 11.9531,-10.375 2.3321,-3.3633 5.0039,-7.9219 8.0157,-13.6719 3.0078,-5.75 7.039,-8.5703 12.0937,-8.4688 7.5703,0.1485 11.2891,3.625 11.1562,10.4375 -0.1679,8.8243 -5.9687,18.4922 -17.4062,29 -11.4375,10.5079 -26.3711,15.586 -44.7969,15.2344 z m 0,0"
       id="path59"
       style="fill:#6a0dad;fill-opacity:1"
       inkscape:label="front E"
       transform="matrix(0.56071637,0,0,0.56071637,777.79043,78.735432)" />
    <path
       stroke-linecap="butt"
       fill="none"
       stroke-linejoin="miter"
       d="m 841.5401,1133.1122 -8.68751,0.1794 c -2.77344,0.055 -5.13672,-0.9141 -7.08594,-2.9063 -1.89062,-1.9961 -2.86328,-4.2578 -2.91406,-6.7851 -0.0549,-2.5235 0.82422,-4.793 2.63281,-6.8047 1.86719,-2.0703 4.1875,-3.1367 6.96093,-3.1914 l 38.26563,-0.7892 c 6.03907,-0.1249 9.125,3.1094 9.26172,9.7032 0.13281,6.5312 -2.81641,9.8593 -8.85547,9.9843 l -8.32031,0.1719 2.92933,142.3398 13.95312,-0.2892 c 5.79297,-0.1168 8.75781,3.1172 8.89453,9.711 0.0625,3.0195 -0.78125,5.4414 -2.53516,7.2656 -1.6875,1.7617 -3.67188,2.6641 -5.95312,2.7109 l -26.89453,0.5546 c -3.01954,0.062 -5.12891,-0.4492 -6.32032,-1.5352 -1.13281,-1.1484 -1.73046,-3.2304 -1.79297,-6.25 l -0.50784,-24.5859 c -13.87109,23.7695 -32.54687,35.8984 -56.02342,36.3789 -18.42578,0.3789 -32.20313,-5.5937 -41.33203,-17.918 -9.07031,-12.3281 -13.77344,-26.6875 -14.10938,-43.0781 l -2.10938,-102.5937 -8.32031,0.1718 c -2.76953,0.055 -4.94922,-0.9179 -6.53125,-2.9179 -1.51953,-2.0039 -2.30859,-4.2696 -2.35937,-6.7969 -0.0508,-2.5234 0.64062,-4.7891 2.07812,-6.793 1.5,-2.0625 3.63672,-3.125 6.41015,-3.1797 l 38.63282,-0.7967 c 2.77343,-0.055 5.04297,0.9141 6.8125,2.9141 1.82422,1.9336 2.76562,4.1641 2.8164,6.6914 0.0547,2.5234 -0.79296,4.8242 -2.53906,6.8945 -1.68359,2.0665 -3.91015,3.1329 -6.68359,3.1875 l -9.05859,0.1878 2.11719,102.9649 c 0.22656,11.0898 3.33204,21.1367 9.31251,30.1367 5.97656,8.9375 15.46874,13.2734 28.46874,13.0078 13.00391,-0.2697 24.85156,-7.0781 35.55078,-20.4258 10.69921,-13.3516 15.83984,-30.1328 15.42187,-50.3437 z m 0,0"
       stroke="#2d2936"
       stroke-width="9.46661"
       stroke-opacity="1"
       stroke-miterlimit="4"
       id="path50"
       style="display:inline"
       inkscape:label="back U"
       transform="matrix(0.56071637,0,0,0.56071637,777.79043,78.735432)" />
    <path
       d="m 841.57088,1133.0881 -8.71874,0.1875 c -2.77344,0.055 -5.125,-0.9063 -7.0625,-2.875 -1.9375,-1.9766 -2.9336,-4.2266 -2.98438,-6.75 -0.0547,-2.5313 0.84766,-4.8282 2.70313,-6.8907 1.85156,-2.0625 4.16406,-3.1171 6.9375,-3.1718 l 38.24999,-0.7969 c 6.0625,-0.125 9.16016,3.0937 9.29688,9.6562 0.13281,6.5625 -2.82813,9.9063 -8.89063,10.0313 l -8.32812,0.1719 2.92187,142.3593 14.01563,-0.2812 c 5.80078,-0.125 8.76953,3.0937 8.90625,9.6562 0.0625,3.0313 -0.77344,5.4493 -2.5,7.25 -1.73047,1.8047 -3.73047,2.7305 -6,2.7813 l -26.89063,0.5469 c -3.03125,0.062 -5.125,-0.4571 -6.28125,-1.5625 -1.15625,-1.1133 -1.76562,-3.1875 -1.82812,-6.2188 l -0.51563,-24.6094 c -13.90624,23.7735 -32.59374,35.8946 -56.0625,36.375 -18.42968,0.3829 -32.1875,-5.5781 -41.28125,-17.8906 -9.08593,-12.3203 -13.79296,-26.6797 -14.125,-43.0781 l -2.10937,-102.6094 -8.32813,0.1719 c -2.77343,0.055 -4.9375,-0.9102 -6.5,-2.8906 -1.55468,-1.9883 -2.35546,-4.2422 -2.40625,-6.7657 -0.0547,-2.5312 0.65625,-4.8203 2.125,-6.875 1.47657,-2.0507 3.60157,-3.1015 6.375,-3.1562 l 38.60938,-0.7969 c 2.78125,-0.062 5.07031,0.9024 6.875,2.8906 1.8125,1.9805 2.74219,4.2344 2.79687,6.7657 0.0508,2.5234 -0.78906,4.8086 -2.51562,6.8593 -1.71875,2.0547 -3.96875,3.1094 -6.75,3.1719 l -9.09375,0.1875 2.10937,102.9844 c 0.22657,11.1172 3.33594,21.1562 9.32813,30.125 6,8.9609 15.5,13.3086 28.5,13.0469 13,-0.2696 24.85156,-7.0821 35.5625,-20.4375 10.70703,-13.3516 15.85156,-30.1289 15.4375,-50.3282 z m 0,0"
       id="path56"
       style="fill:#6a0dad;fill-opacity:1"
       inkscape:label="front U"
       transform="matrix(0.56071637,0,0,0.56071637,777.79043,78.735432)" />
    <path
       stroke-linecap="butt"
       fill="none"
       stroke-linejoin="miter"
       d="m 658.17294,1349.3778 c -17.82811,1.2191 -34.19531,-16.3867 -49.09376,-52.8047 -14.13672,8.3164 -28,12.9336 -41.58984,13.8633 -27.42188,1.8672 -51.3125,-7.8711 -71.67188,-29.2148 -20.30078,-21.4102 -31.76563,-51.3945 -34.39454,-89.9453 -2.62891,-38.5547 4.69922,-69.293 21.97656,-92.2149 17.33985,-22.9297 39.96875,-35.3437 67.88282,-37.2461 27.98048,-1.9059 52.08203,7.3203 72.3125,27.6875 20.23047,20.3672 31.64844,49.7031 34.26173,88.0117 1.54687,22.6875 -0.4922,43.0899 -6.11329,61.2032 -5.5664,18.0468 -13.53906,32.4882 -23.91796,43.3281 l 7.30859,18.8672 c 6.19141,16.5039 10.5586,25.75 13.10156,27.7383 2.54688,1.9882 4.71875,3.0468 6.51954,3.1718 0.14844,-5.0781 2.00781,-9.9609 5.57812,-14.6523 3.64063,-4.6328 7.48828,-7.0899 11.54688,-7.3672 8.05469,-0.5468 12.37109,3.4492 12.95312,12 0.48425,7.0703 -1.8125,13.2813 -6.88281,18.6289 -5.06641,5.4102 -11.66016,8.3945 -19.77734,8.9453 z m -61.50392,-256.5547 c -12.52344,-9.7734 -26.9961,-14.0976 -43.41407,-12.9804 -16.35546,1.1172 -30.19141,7.5273 -41.5,19.2304 -21.53125,22.1641 -31.00781,52.1524 -28.42968,89.9688 1.23827,18.1367 5.17578,35.1367 11.81641,50.9922 6.64062,15.8554 16.23047,28.789 28.77734,38.8086 12.60547,10.0117 25.88672,14.5429 39.84375,13.5937 14.01952,-0.9572 26.41797,-5.7265 37.19922,-14.3047 -2.30078,-8.4297 -6.02344,-15.0039 -11.16406,-19.7187 -5.14063,-4.7149 -10.10937,-6.9102 -14.90625,-6.582 -8.0547,0.5505 -12.86719,4.2421 -14.4375,11.0859 -1.57813,6.7773 -4.48828,10.3125 -8.73047,10.6016 -2.51953,0.1718 -4.79688,-0.6016 -6.82812,-2.3165 -2.03907,-1.7734 -3.16797,-4.2929 -3.38672,-7.5507 -0.44919,-6.5782 2.39453,-12.8594 8.53515,-18.836 6.20313,-5.9843 13.97656,-9.2929 23.32422,-9.9297 9.34375,-0.6367 18.01563,1.4883 26.00782,6.3789 8.05468,4.8907 14.42187,11.7461 19.10156,20.5664 14.06641,-20.2304 19.92968,-47.4726 17.59374,-81.7226 -2.71117,-39.7812 -15.84375,-68.8789 -39.40234,-87.2852 z m 0,0"
       stroke="#2d2936"
       stroke-width="9.46661"
       stroke-opacity="1"
       stroke-miterlimit="4"
       id="path49"
       style="display:inline"
       inkscape:label="end Q"
       transform="matrix(0.56071637,0,0,0.56071637,777.79043,78.735432)" />
    <path
       d="m 658.24139,1349.4172 c -17.88672,1.2187 -34.27734,-16.3906 -49.17188,-52.8281 -14.10546,8.2929 -27.96093,12.9023 -41.56249,13.8281 -27.44922,1.875 -51.32813,-7.8789 -71.64063,-29.2656 -20.30469,-21.3829 -31.76562,-51.3438 -34.39062,-89.875 -2.63282,-38.5391 4.6914,-69.2813 21.98437,-92.2188 17.28906,-22.9375 39.91016,-35.3594 67.85938,-37.2656 27.95703,-1.9063 52.05468,7.3359 72.29687,27.7187 20.23828,20.375 31.66406,49.7032 34.28125,87.9844 1.53906,22.668 -0.49219,43.0469 -6.09375,61.1406 -5.59375,18.0938 -13.58984,32.5586 -23.98438,43.3907 l 7.35938,18.8437 c 6.17578,16.5313 10.53516,25.7852 13.07812,27.7656 2.55079,1.9766 4.71094,3.0352 6.48438,3.1719 0.16406,-5.0625 2.04687,-9.9375 5.64062,-14.625 3.60157,-4.6758 7.42188,-7.1484 11.45313,-7.4219 8.05078,-0.5508 12.375,3.461 12.96875,12.0313 0.47656,7.0508 -1.82031,13.2812 -6.89063,18.6875 -5.0625,5.4062 -11.62109,8.3828 -19.67187,8.9375 z m -61.54688,-256.5625 c -12.55468,-9.7696 -27.01562,-14.0938 -43.39062,-12.9688 -16.36719,1.1172 -30.21875,7.4961 -41.5625,19.1407 -21.52344,22.2187 -30.99609,52.2187 -28.42187,90 1.23828,18.1367 5.17968,35.1367 11.82812,51 6.64453,15.8671 16.25391,28.8085 28.82813,38.8281 12.58203,10.0234 25.86328,14.5586 39.84375,13.6094 13.97656,-0.9571 26.36328,-5.7227 37.15624,-14.2969 -2.33593,-8.4375 -6.07031,-15.0156 -11.20312,-19.7344 -5.125,-4.7187 -10.08594,-6.9102 -14.875,-6.5781 -8.05469,0.5429 -12.85937,4.2265 -14.42187,11.0469 -1.55469,6.8125 -4.46875,10.3671 -8.75,10.6562 -2.52344,0.168 -4.79297,-0.6289 -6.8125,-2.3906 -2.02344,-1.7578 -3.14844,-4.2735 -3.375,-7.5469 -0.4375,-6.5508 2.42578,-12.8164 8.59375,-18.7969 6.16406,-5.9883 13.91015,-9.3008 23.23437,-9.9375 9.32031,-0.6328 18.00781,1.4961 26.0625,6.3907 8.05078,4.8867 14.39844,11.7187 19.04687,20.5 14.05079,-20.1758 19.91016,-47.3907 17.57813,-81.6407 -2.71875,-39.8008 -15.83984,-68.8945 -39.35938,-87.2812 z m 0,0"
       id="path54"
       style="fill:#6a0dad;fill-opacity:1"
       inkscape:label="front Q"
       transform="matrix(0.56071637,0,0,0.56071637,777.79043,78.735432)" />
    <path
       id="path69"
       style="display:inline;fill:#6a0dad"
       d="m 369.69244,1180.8036 -0.3789,-0.02 c -8.44922,-0.8125 -19.58204,1.043 -33.41016,5.5664 -5.65625,1.5899 -20.91406,8.1993 -45.77344,19.8243 -7.95312,2.8164 -14.22656,5.1562 -18.8164,7.0312 -2.37891,0.8594 -5.04297,1.711 -7.99219,2.5547 -15.07813,4.1758 -26.09375,5.793 -33.03906,4.8438 l 5.92578,1.2734 c 6.75,1.832 11.23437,2.9414 13.46093,3.3242 3.01172,0.6289 6.73829,1.082 11.17579,1.3633 11.64453,0.2773 21.16796,-0.8789 28.57031,-3.4727 6.6289,-2.2304 10.61719,-3.7031 11.96875,-4.4179 4.67578,-1.9727 14.61719,-6.4844 29.83203,-13.5352 l 8.90625,-3.7344 c 8.66797,-3.2422 17.82031,-5.9453 27.46484,-8.1015 20.14453,-3.7852 32.73828,-1.1758 37.78125,7.832 -2.26172,-6.7031 -5.82422,-11.3477 -10.68359,-13.9336 -5.69141,-3.4414 -14.02344,-5.5742 -24.99219,-6.3984 m 3.48047,-37.9058 h -0.70312 c -11.625,-0.1679 -26.6836,2.461 -45.17969,7.8867 -6.38672,1.9766 -11.89453,3.8672 -16.52735,5.668 l -55.99218,22.6563 c -11.28125,4.0351 -20.71875,6.6289 -28.3086,7.7812 -14.88281,2.1914 -29.0664,1.3672 -42.55468,-2.4609 -11.97266,-3.8086 -20.60157,-10.3438 -25.88672,-19.6133 0.55078,3.9922 2.65234,9.0547 6.29687,15.1953 4.82422,8.5156 12.44922,15.0547 22.87891,19.625 11.72656,4.5703 25.07422,6.4453 40.03515,5.625 8.02735,-0.4375 19.25782,-2.8555 33.69141,-7.2539 14.17578,-4.9141 34.85156,-12.9648 62.01953,-24.1484 13.26953,-4.5157 21.48828,-7.1016 24.66016,-7.7696 16.26953,-3.8515 30.57812,-4.5898 42.92578,-2.2148 14.48047,2.2891 26.47656,11.3516 35.98437,27.1875 7.14454,13.8164 6.3125,25.0078 -2.49609,33.5781 9.73828,-7.3672 15.00391,-15.0937 15.79688,-23.1758 1.38671,-12.0429 -0.67969,-22.25 -6.19922,-30.625 -11.91016,-18.2187 -32.05469,-27.5351 -60.44141,-27.9453"
       inkscape:label="left flourish"
       transform="matrix(0.56071637,0,0,0.56071637,777.79043,78.735432)" />
    <path
       id="path71"
       style="display:inline;fill:#6a0dad"
       d="m 1437.1768,1180.8036 0.3828,-0.02 c 8.4453,-0.8125 19.582,1.043 33.4063,5.5664 5.6601,1.5899 20.9179,8.1993 45.7773,19.8243 7.9492,2.8164 14.2227,5.1562 18.8125,7.0312 2.3828,0.8594 5.043,1.711 7.9922,2.5547 15.082,4.1758 26.0937,5.793 33.039,4.8438 l -5.9218,1.2734 c -6.75,1.832 -11.2383,2.9414 -13.461,3.3242 -3.0156,0.6289 -6.7422,1.082 -11.1797,1.3633 -11.6406,0.2773 -21.164,-0.8789 -28.5703,-3.4727 -6.625,-2.2304 -10.6132,-3.7031 -11.9648,-4.4179 -4.6758,-1.9727 -14.6211,-6.4844 -29.832,-13.5352 l -8.9102,-3.7344 c -8.6641,-3.2422 -17.8203,-5.9453 -27.4648,-8.1015 -20.1446,-3.7852 -32.7383,-1.1758 -37.7813,7.832 2.2656,-6.7031 5.8242,-11.3477 10.6875,-13.9336 5.6914,-3.4414 14.0195,-5.5742 24.9883,-6.3984 m -3.4805,-37.9059 h 0.7031 c 11.625,-0.1679 26.6836,2.461 45.1797,7.8867 6.3868,1.9766 11.8985,3.8672 16.5274,5.668 l 55.9961,22.6563 c 11.2812,4.0351 20.7148,6.6289 28.3086,7.7812 14.8789,2.1914 29.0625,1.3672 42.5507,-2.4609 11.9727,-3.8086 20.6055,-10.3438 25.8907,-19.6133 -0.5547,3.9922 -2.6524,9.0547 -6.3008,15.1953 -4.8242,8.5156 -12.4492,15.0547 -22.875,19.625 -11.7305,4.5703 -25.0742,6.4453 -40.0352,5.625 -8.0312,-0.4375 -19.2617,-2.8555 -33.6914,-7.2539 -14.1797,-4.9141 -34.8515,-12.9648 -62.0234,-24.1484 -13.2695,-4.5157 -21.4883,-7.1016 -24.6563,-7.7696 -16.2734,-3.8515 -30.582,-4.5898 -42.9296,-2.2148 -14.4805,2.2891 -26.4727,11.3516 -35.9844,27.1875 -7.1446,13.8164 -6.3125,25.0078 2.4961,33.5781 -9.7383,-7.3672 -15,-15.0937 -15.7969,-23.1758 -1.3867,-12.0429 0.6836,-22.25 6.2031,-30.625 11.9063,-18.2187 32.0547,-27.5351 60.4375,-27.9453"
       inkscape:label="right flourish"
       transform="matrix(0.56071637,0,0,0.56071637,777.79043,78.735432)" />
  </g>
  <g
     id="g143"
     inkscape:label="Alt Key"
     transform="matrix(0.53844059,0,0,0.53844059,112.31626,-162.17341)"
     style="display:inline">
    <path
       id="path140"
       d="m 615.32315,301.19091 c -46.38666,0 -83.99267,37.606 -83.99267,83.99267 v 367.44139 c 0,46.38667 37.60601,83.99267 83.99267,83.99267 h 367.4414 c 46.38665,0 83.99115,-37.606 83.99115,-83.99267 V 385.18358 c 0,-46.38667 -37.6045,-83.99267 -83.99115,-83.99267 z"
       style="display:inline;fill:#949494"
       inkscape:label="background" />
    <path
       id="path141"
       style="color:#000000;fill:#2d2936;stroke-width:0.74995;-inkscape-stroke:none"
       d="m 615.32681,301.19091 c -46.38666,0 -83.99267,37.606 -83.99267,83.99267 v 367.42967 c 0,46.39059 37.60601,83.9956 83.99267,83.9956 h 367.42968 c 46.39061,0 83.99561,-37.60501 83.99561,-83.9956 V 385.18358 c 0,-46.38667 -37.605,-83.99267 -83.99561,-83.99267 z m 0,7.5 h 367.42968 c 42.33771,0 76.49561,34.15921 76.49561,76.49267 v 367.42967 c 0,42.33771 -34.1579,76.49707 -76.49561,76.49707 H 615.32681 c -42.33345,0 -76.49267,-34.15936 -76.49267,-76.49707 V 385.18358 c 0,-42.33346 34.15922,-76.49267 76.49267,-76.49267 z"
       clip-path="none"
       inkscape:label="background border" />
    <path
       id="path142"
       style="display:inline;fill:#c0c0c0"
       d="m 694.04971,355.62889 c -22.27338,0 -43.64066,8.84818 -59.39062,24.60205 -15.75386,15.74998 -24.60205,37.11725 -24.60205,59.39062 v 209.98828 c 0,22.27731 8.84819,43.64066 24.60205,59.39062 15.74996,15.75387 37.11724,24.60059 59.39062,24.60059 h 209.98828 c 22.27728,0 43.64064,-8.84672 59.39062,-24.60059 15.75387,-15.74996 24.60058,-37.11331 24.60058,-59.39062 V 439.62156 c 0,-22.27337 -8.84671,-43.64064 -24.60058,-59.39062 -15.74998,-15.75387 -37.11334,-24.60205 -59.39062,-24.60205 z"
       inkscape:label="face" />
    <path
       id="path143"
       style="display:inline;fill:#2d2936"
       d="m 694.04971,355.62889 c -22.27341,0 -43.64064,8.84816 -59.39062,24.60205 -15.75388,15.74999 -24.60205,37.11722 -24.60205,59.39062 v 209.98828 c 0,22.27733 8.84817,43.64064 24.60205,59.39062 15.74998,15.75389 37.11721,24.60059 59.39062,24.60059 h 209.98828 c 22.27731,0 43.64063,-8.8467 59.39062,-24.60059 15.75389,-15.74998 24.60058,-37.11329 24.60058,-59.39062 V 439.62156 c 0,-22.2734 -8.84669,-43.64063 -24.60058,-59.39062 -15.74999,-15.75389 -37.11331,-24.60205 -59.39062,-24.60205 z m 0,7.49854 h 209.98828 c 20.29166,0 39.74117,8.05597 54.08642,22.40478 l 10e-4,10e-4 c 14.34838,14.34482 22.40479,33.80048 22.40479,54.08788 v 209.98828 c 0,20.29165 -8.05597,39.74117 -22.40479,54.08642 v 10e-4 h -10e-4 c -14.34525,14.34881 -33.79476,22.40478 -54.08642,22.40478 H 694.04971 c -20.28739,0 -39.74307,-8.05641 -54.08789,-22.40478 l -10e-4,-10e-4 c -14.34924,-14.34482 -22.40524,-33.7943 -22.40524,-54.08595 V 439.62156 c 0,-20.2874 8.0564,-39.74306 22.40478,-54.08788 h 10e-4 v -10e-4 c 14.34479,-14.34838 33.8005,-22.40478 54.08789,-22.40478 z"
       inkscape:label="face border" />
    <path
       id="path83"
       style="fill:#2d2936;fill-opacity:1"
       d="m 861.37926,449.0952 h 1.9219 v 17.64062 h 12.5937 v 3.71875 h -12.5937 v 38.64063 c 0,2.07422 0.5976,3.93359 1.7968,5.57812 1.1953,1.63672 2.875,2.45313 5.0313,2.45313 1.4453,0 2.7265,-0.33594 3.8437,-1.01563 1.125,-0.67578 2.3203,-1.85937 3.5938,-3.54687 h 2.4062 c -2.0859,3.84375 -4.3242,6.73047 -6.7187,8.65625 -2.3985,1.91406 -5.1992,2.875 -8.4063,2.875 -3.5117,0 -6.289,-1.30469 -8.3281,-3.90625 -2.043,-2.60156 -3.0625,-6.14453 -3.0625,-10.625 v -39.10938 h -8.5156 v -2.40625 c 4.0703,-1.67578 7.5078,-4.13281 10.3125,-7.375 2.8008,-3.23828 4.8437,-7.09765 6.125,-11.57812 z m 0,0 m -30.7209,-12.71875 v 73.4375 c 0,4 0.5781,6.74219 1.7343,8.21875 1.1641,1.48047 3.2657,2.21875 6.2969,2.21875 v 2.15625 h -26.9844 v -2.15625 c 2.2383,0 3.9922,-0.23828 5.2657,-0.71875 1.2812,-0.47656 2.2382,-1.47656 2.875,-3 0.6445,-1.51953 0.9687,-3.75781 0.9687,-6.71875 v -56.75 c 0,-5.36328 -1.8828,-8.04688 -5.6406,-8.04688 -1.043,0 -1.961,0.19922 -2.75,0.59375 l -0.7188,-2.03125 16.7969,-7.20312 z m 0,0 m -100.4357,70.07812 30.7187,-70.07812 h 2.1563 l 32.3906,74.625 c 1.207,2.73047 2.3477,4.75781 3.4219,6.07812 1.082,1.3125 2.2226,2.17188 3.4219,2.57813 1.1953,0.39844 2.8359,0.59375 4.9218,0.59375 v 2.15625 h -33.8281 v -2.15625 c 2.875,0 5.0313,-0.51953 6.4688,-1.5625 1.4375,-1.03906 2.1562,-2.44141 2.1562,-4.20313 0,-1.51953 -0.5156,-3.39843 -1.5469,-5.64062 l -6.25,-14.15625 h -33.2343 l -6.8438,15.71875 c -0.793,1.60547 -1.1875,3.04687 -1.1875,4.32812 0,3.67969 2.957,5.51563 8.875,5.51563 v 2.15625 h -23.75 v -2.15625 c 1.9883,-0.23828 3.6016,-0.81641 4.8438,-1.73438 1.25,-0.92578 2.375,-2.26953 3.375,-4.03125 1,-1.75781 2.2968,-4.4375 3.8906,-8.03125 z m 42.1094,-16.32812 -14.625,-33.46875 -14.6407,33.46875 z m 0,0"
       inkscape:label="Alt" />
  </g>
  <g
     id="g148"
     inkscape:label="Star"
     style="display:inline"
     transform="matrix(0.53844059,0,0,0.53844059,-137.17306,-162.17657)">
    <path
       id="path22"
       d="m 892.38287,466.60106 c 0,23.05075 -0.97998,40.91065 -2.4917,54.74267 -0.15625,1.42969 -0.37549,2.84766 -0.64892,4.25391 -0.27735,1.41014 -0.61279,2.80517 -1.00342,4.18798 -0.39453,1.3789 -0.84864,2.74121 -1.35645,4.08106 -0.51172,1.34375 -1.07373,2.66113 -1.69482,3.95801 -0.62109,1.29296 -1.29639,2.55859 -2.02295,3.79687 -0.72656,1.23828 -1.5083,2.44044 -2.33643,3.61231 -0.82812,1.17187 -1.70654,2.30957 -2.63232,3.40722 -0.92578,1.09766 -1.89894,2.15137 -2.91064,3.16699 -1.01563,1.01563 -2.07373,1.98487 -3.17139,2.91065 -1.09766,0.92578 -2.23096,1.8042 -3.40283,2.63232 -1.17188,0.83203 -2.37549,1.60987 -3.61377,2.33643 -1.23829,0.73047 -2.50391,1.40185 -3.79688,2.02295 -1.29687,0.62109 -2.61279,1.18848 -3.95654,1.69629 -1.34375,0.50781 -2.70264,0.96045 -4.08545,1.35498 -1.3789,0.39453 -2.77344,0.72607 -4.18359,1.00341 -1.41016,0.27735 -2.82813,0.49268 -4.25391,0.64893 -13.83201,1.51563 -31.6924,2.49609 -54.74707,2.49609 23.05467,0 40.91506,0.97657 54.74707,2.4961 1.42578,0.15234 2.84375,0.37109 4.25391,0.64453 1.41015,0.27734 2.80469,0.61279 4.18359,1.00342 1.38281,0.39453 2.7417,0.84862 4.08545,1.35644 1.34375,0.51171 2.65967,1.07373 3.95654,1.69483 1.29297,0.62109 2.55859,1.29638 3.79688,2.02295 1.23828,0.72655 2.44189,1.5083 3.61377,2.33642 1.17187,0.82813 2.30517,1.70654 3.40283,2.63233 1.09766,0.92577 2.15576,1.89892 3.17139,2.91064 1.0117,1.01563 1.98486,2.07373 2.91064,3.17139 0.92578,1.09765 1.8042,2.23096 2.63232,3.40283 0.82813,1.17188 1.60987,2.37549 2.33643,3.61377 0.72656,1.23828 1.40186,2.5039 2.02295,3.79687 0.62109,1.29687 1.18701,2.6128 1.69482,3.95655 0.50781,1.34374 0.96192,2.70263 1.35645,4.08544 0.39063,1.3789 0.72607,2.77344 1.00342,4.1836 0.27343,1.40625 0.49267,2.82422 0.64892,4.2539 1.51172,13.83202 2.4917,31.69241 2.4917,54.74707 0,-23.05466 0.98047,-40.91505 2.49609,-54.74707 0.15625,-1.42968 0.37159,-2.84765 0.64893,-4.2539 0.27735,-1.41016 0.60889,-2.8047 1.00342,-4.1836 0.39453,-1.38281 0.84717,-2.7417 1.35498,-4.08544 0.50781,-1.34375 1.0752,-2.65968 1.69629,-3.95655 0.62109,-1.29297 1.29248,-2.55859 2.02295,-3.79687 0.72656,-1.23828 1.50438,-2.44189 2.33642,-3.61377 0.82812,-1.17187 1.70655,-2.30518 2.63233,-3.40283 0.92578,-1.09766 1.89502,-2.15576 2.91064,-3.17139 1.01563,-1.01172 2.06934,-1.98487 3.16699,-2.91064 1.09766,-0.92579 2.23536,-1.8042 3.40723,-2.63233 1.17188,-0.82812 2.37403,-1.60987 3.6123,-2.33642 1.23829,-0.73047 2.50391,-1.40186 3.79688,-2.02295 1.29297,-0.6211 2.61426,-1.18702 3.95801,-1.69483 1.33984,-0.50782 2.70215,-0.96191 4.08105,-1.35644 1.38281,-0.39063 2.77735,-0.72608 4.18359,-1.00342 1.41015,-0.27344 2.82862,-0.49219 4.25831,-0.64453 13.83201,-1.51953 31.6919,-2.4961 54.74267,-2.4961 -23.05467,0 -40.91066,-0.98046 -54.74267,-2.49609 -1.42969,-0.15625 -2.84816,-0.37158 -4.25831,-0.64893 -1.40624,-0.27734 -2.80078,-0.60888 -4.18359,-1.00341 -1.3789,-0.39453 -2.74121,-0.84717 -4.08105,-1.35498 -1.34375,-0.50781 -2.66504,-1.0752 -3.95801,-1.69629 -1.29297,-0.6211 -2.55859,-1.29248 -3.79688,-2.02295 -1.23827,-0.72656 -2.44042,-1.5044 -3.6123,-2.33643 -1.17187,-0.82812 -2.30957,-1.70654 -3.40723,-2.63232 -1.09765,-0.92578 -2.15136,-1.89502 -3.16699,-2.91065 -1.01562,-1.01562 -1.98486,-2.06933 -2.91064,-3.16699 -0.92578,-1.09765 -1.80421,-2.23535 -2.63233,-3.40722 -0.83204,-1.17187 -1.60986,-2.37403 -2.33642,-3.61231 -0.73047,-1.23828 -1.40186,-2.50391 -2.02295,-3.79687 -0.62109,-1.29688 -1.18848,-2.61426 -1.69629,-3.95801 -0.50781,-1.33985 -0.96045,-2.70216 -1.35498,-4.08106 -0.39453,-1.38281 -0.72607,-2.77784 -1.00342,-4.18798 -0.27734,-1.40625 -0.49268,-2.82422 -0.64893,-4.25391 -1.51562,-13.83202 -2.49609,-31.69192 -2.49609,-54.74267 z"
       style="fill:#c0c0c0" />
    <path
       id="path23"
       d="m 892.38287,517.00047 c 0,11.6953 -0.50049,20.75391 -1.27002,27.77343 -0.15625,1.44922 -0.43652,2.87793 -0.83496,4.28028 -0.40234,1.40234 -0.91797,2.76172 -1.54687,4.07812 -0.63281,1.31641 -1.36817,2.57031 -2.21192,3.76172 -0.84375,1.19141 -1.78027,2.30176 -2.81543,3.33692 -1.03125,1.03124 -2.14111,1.96875 -3.33252,2.81249 -1.1914,0.84375 -2.44531,1.58154 -3.76172,2.21045 -1.31639,0.63281 -2.67578,1.14844 -4.07812,1.54688 -1.40234,0.40234 -2.83252,0.6792 -4.28174,0.83935 -7.01952,0.76954 -16.07717,1.26563 -27.77636,1.26563 11.69919,0 20.75684,0.4961 27.77636,1.26562 1.44922,0.16016 2.8794,0.43848 4.28174,0.84082 1.40234,0.39844 2.76173,0.91407 4.07812,1.54688 1.31641,0.62891 2.57032,1.3667 3.76172,2.21045 1.19141,0.84375 2.30127,1.78125 3.33252,2.8125 1.03516,1.03125 1.97168,2.14404 2.81543,3.33545 0.84375,1.1875 1.57911,2.44238 2.21192,3.75879 0.6289,1.31641 1.14453,2.67577 1.54687,4.07812 0.39844,1.40625 0.67871,2.83155 0.83496,4.28467 0.76208,6.94772 1.25753,15.92094 1.26709,27.45263 h 0.006 c 0.009,-11.53169 0.50061,-20.50491 1.2627,-27.45263 0.15625,-1.45312 0.43799,-2.87842 0.83642,-4.28467 0.40235,-1.40235 0.91797,-2.76171 1.54688,-4.07812 0.63281,-1.31641 1.3706,-2.57129 2.21045,-3.75879 0.84375,-1.19141 1.78174,-2.3042 2.81689,-3.33545 1.03125,-1.03125 2.13966,-1.96875 3.33105,-2.8125 1.19141,-0.84375 2.44532,-1.58154 3.76172,-2.21045 1.31641,-0.63281 2.67578,-1.14844 4.07813,-1.54688 1.40234,-0.40234 2.83252,-0.68066 4.28174,-0.84082 6.9516,-0.76208 15.9253,-1.2532 27.45703,-1.26269 v -0.006 c -11.53548,-0.009 -20.50542,-0.5006 -27.45703,-1.2627 -1.44922,-0.16015 -2.8794,-0.43701 -4.28174,-0.83935 -1.40235,-0.39844 -2.76172,-0.91407 -4.07813,-1.54688 -1.3164,-0.62891 -2.57031,-1.3667 -3.76172,-2.21045 -1.19139,-0.84374 -2.2998,-1.78125 -3.33105,-2.81249 -1.03515,-1.03516 -1.97314,-2.14551 -2.81689,-3.33692 -0.83985,-1.19141 -1.57764,-2.44531 -2.21045,-3.76172 -0.62891,-1.3164 -1.14453,-2.67578 -1.54688,-4.07812 -0.39843,-1.40235 -0.68017,-2.83106 -0.83642,-4.28028 -0.76953,-7.01952 -1.26563,-16.07813 -1.26563,-27.77343 z"
       style="display:inline;fill:#6a0dad" />
  </g>
  <g
     id="g139"
     inkscape:label="Ctrl Key"
     style="display:inline"
     transform="matrix(0.53844059,0,0,0.53844059,-137.17306,-162.17341)">
    <path
       id="path24"
       d="m 338.64119,301.19091 c -46.38666,0 -83.99267,37.606 -83.99267,83.99267 v 367.44139 c 0,46.38667 37.60601,83.99267 83.99267,83.99267 h 367.4414 c 46.38667,0 83.9912,-37.606 83.9912,-83.99267 V 385.18358 c 0,-46.38667 -37.60453,-83.99267 -83.9912,-83.99267 z"
       style="display:inline;fill:#949494"
       inkscape:label="background" />
    <path
       id="path25"
       style="color:#000000;fill:#2d2936;stroke-width:0.74995;-inkscape-stroke:none"
       d="m 338.64119,301.19091 c -46.38666,0 -83.99267,37.606 -83.99267,83.99267 v 367.42967 c 0,46.39059 37.60601,83.9956 83.99267,83.9956 h 367.42968 c 46.39058,0 83.9956,-37.60501 83.9956,-83.9956 V 385.18358 c 0,-46.38667 -37.60502,-83.99267 -83.9956,-83.99267 z m 0,7.5 h 367.42968 c 42.3377,0 76.4956,34.15921 76.4956,76.49267 v 367.42967 c 0,42.33771 -34.1579,76.49707 -76.4956,76.49707 H 338.64119 c -42.33345,0 -76.49267,-34.15936 -76.49267,-76.49707 V 385.18358 c 0,-42.33346 34.15922,-76.49267 76.49267,-76.49267 z"
       clip-path="none"
       inkscape:label="background border" />
    <path
       id="path104"
       style="display:inline;fill:#c0c0c0"
       d="m 417.36775,355.62889 c -22.27338,0 -43.64066,8.84818 -59.39062,24.60205 -15.75386,15.74998 -24.60205,37.11725 -24.60205,59.39062 v 209.98828 c 0,22.27731 8.84819,43.64066 24.60205,59.39062 15.74996,15.75387 37.11724,24.60059 59.39062,24.60059 h 209.98828 c 22.27728,0 43.64064,-8.84672 59.39062,-24.60059 15.75387,-15.74996 24.60058,-37.11331 24.60058,-59.39062 V 439.62156 c 0,-22.27337 -8.84671,-43.64064 -24.60058,-59.39062 -15.74998,-15.75387 -37.11334,-24.60205 -59.39062,-24.60205 z"
       inkscape:label="face" />
    <path
       id="path130"
       style="display:inline;fill:#2d2936"
       d="m 417.36775,355.62889 c -22.27341,0 -43.64064,8.84816 -59.39062,24.60205 -15.75388,15.74999 -24.60205,37.11722 -24.60205,59.39062 v 209.98828 c 0,22.27733 8.84817,43.64064 24.60205,59.39062 15.74998,15.75389 37.11721,24.60059 59.39062,24.60059 h 209.98828 c 22.27731,0 43.64063,-8.8467 59.39062,-24.60059 15.75389,-15.74998 24.60058,-37.11329 24.60058,-59.39062 V 439.62156 c 0,-22.2734 -8.84669,-43.64063 -24.60058,-59.39062 -15.74999,-15.75389 -37.11331,-24.60205 -59.39062,-24.60205 z m 0,7.49854 h 209.98828 c 20.29166,0 39.74117,8.05597 54.08642,22.40478 l 10e-4,10e-4 c 14.34838,14.34482 22.40479,33.80048 22.40479,54.08788 v 209.98828 c 0,20.29165 -8.05597,39.74117 -22.40479,54.08642 v 10e-4 h -10e-4 c -14.34525,14.34881 -33.79476,22.40478 -54.08642,22.40478 H 417.36775 c -20.28739,0 -39.74307,-8.05641 -54.08789,-22.40478 l -10e-4,-10e-4 c -14.34924,-14.34482 -22.40524,-33.7943 -22.40524,-54.08595 V 439.62156 c 0,-20.2874 8.0564,-39.74306 22.40478,-54.08788 h 0.001 v -10e-4 c 14.34479,-14.34838 33.8005,-22.40478 54.08789,-22.40478 z"
       inkscape:label="face border" />
    <path
       id="path38"
       style="display:inline;fill:#2d2936;fill-opacity:1"
       d="m 613.61558,436.37645 v 73.4375 c 0,4 0.57813,6.74219 1.73438,8.21875 1.16406,1.48047 3.26562,2.21875 6.29687,2.21875 v 2.15625 h -26.98437 v -2.15625 c 2.23828,0 3.99218,-0.23828 5.26562,-0.71875 1.28125,-0.47656 2.23828,-1.47656 2.875,-3 0.64453,-1.51953 0.96875,-3.75781 0.96875,-6.71875 v -56.75 c 0,-5.36328 -1.88281,-8.04688 -5.64062,-8.04688 -1.04297,0 -1.96094,0.19922 -2.75,0.59375 l -0.71875,-2.03125 16.79687,-7.20312 z m 0,0 m -44.87261,40.3125 h 0.23438 c 2.08203,-3.67578 4.34375,-6.47266 6.78125,-8.39063 2.4375,-1.92578 5.17578,-2.89062 8.21875,-2.89062 2.15625,0 3.91016,0.66406 5.26562,1.98437 1.36329,1.32422 2.04688,2.94532 2.04688,4.85938 0,1.52344 -0.54297,2.80469 -1.625,3.84375 -1.07422,1.04297 -2.29297,1.5625 -3.65625,1.5625 -1.11719,0 -2.03125,-0.21875 -2.75,-0.65625 -0.71875,-0.44531 -1.4375,-1.03125 -2.15625,-1.75 -0.16797,-0.082 -0.45313,-0.32031 -0.85938,-0.71875 -0.39843,-0.39453 -0.8125,-0.69141 -1.25,-0.89063 -0.4375,-0.20703 -0.89843,-0.3125 -1.375,-0.3125 -1.84375,0 -3.42968,0.74219 -4.75,2.21875 -1.3125,1.48047 -2.6875,3.5 -4.125,6.0625 v 28.07813 c 0,3.125 0.33594,5.44922 1.01563,6.96875 0.67578,1.51172 1.73437,2.49219 3.17187,2.9375 1.44532,0.4375 3.56641,0.65625 6.35938,0.65625 v 2.15625 h -29.51563 v -2.15625 h 0.60938 c 2.95703,0 5.11328,-0.71875 6.46875,-2.15625 1.36328,-1.44531 2.04687,-4.08594 2.04687,-7.92188 v -27.35937 c 0,-3.75781 -0.40234,-6.21875 -1.20312,-7.375 -0.80469,-1.16406 -2.20313,-1.75 -4.20313,-1.75 -1.19921,0 -2.19921,0.24219 -3,0.71875 l -0.71875,-2.03125 16.79688,-6.96875 h 2.17187 z m 0,0 M 526.50438,449.0952 h 1.92188 v 17.64062 h 12.59375 v 3.71875 h -12.59375 v 38.64063 c 0,2.07422 0.59766,3.93359 1.79687,5.57812 1.19532,1.63672 2.875,2.45313 5.03125,2.45313 1.44532,0 2.72657,-0.33594 3.84375,-1.01563 1.125,-0.67578 2.32032,-1.85937 3.59375,-3.54687 h 2.40625 c -2.08593,3.84375 -4.32421,6.73047 -6.71875,8.65625 -2.39843,1.91406 -5.19921,2.875 -8.40625,2.875 -3.51171,0 -6.28906,-1.30469 -8.32812,-3.90625 -2.04297,-2.60156 -3.0625,-6.14453 -3.0625,-10.625 v -39.10938 h -8.51562 v -2.40625 c 4.07031,-1.67578 7.50781,-4.13281 10.31249,-7.375 2.80079,-3.23828 4.84375,-7.09765 6.125,-11.57812 z m 0,0 m -56.16485,-10.92188 c 4,0 7.45703,0.38282 10.375,1.14063 2.92578,0.76172 5.75,1.74219 8.46875,2.9375 2.23828,0.88672 3.67578,1.32812 4.3125,1.32812 0.95703,0 1.875,-0.5 2.75,-1.5 0.88281,-1 1.48828,-2.30078 1.8125,-3.90625 h 2.04688 l 2.03125,27.84375 h -2.03125 c -0.73047,-4.88281 -2.51563,-9.08203 -5.35938,-12.59375 -2.83594,-3.51953 -6.3125,-6.17968 -10.4375,-7.98437 -4.11719,-1.80078 -8.44922,-2.70313 -13,-2.70313 -9.36719,0 -16.87109,3.34375 -22.51562,10.03125 -5.63672,6.67969 -8.45313,16.77344 -8.45313,30.28125 0,8 1.53906,14.70313 4.625,20.10938 3.08203,5.39844 7.125,9.39844 12.125,12 5,2.59375 10.33594,3.89062 16.01563,3.89062 5.83203,0 11.39062,-1.47656 16.67187,-4.4375 5.28125,-2.95703 9.39844,-6.91406 12.35938,-11.875 l 1.79687,1.1875 c -7.91797,13.52344 -19.59375,20.28125 -35.03125,20.28125 -8,0 -15.32422,-1.85937 -21.96875,-5.57812 -6.63672,-3.71875 -11.89062,-8.77344 -15.76562,-15.17188 -3.875,-6.40625 -5.8125,-13.44531 -5.8125,-21.125 0,-8.07031 1.99218,-15.48828 5.98437,-22.25 4,-6.75781 9.4375,-12.09765 16.3125,-16.01562 6.88281,-3.92578 14.44531,-5.89063 22.6875,-5.89063 z m 0,0"
       inkscape:label="Ctrl" />
  </g>
</svg>
